<svg xmlns="http://www.w3.org/2000/svg" viewBox="0 0 200 200"><defs><style>.cls-1{fill:#fff;}</style></defs><title>10</title><g id="Object"><path class="cls-1" d="M144.5,107c-.52.48-1.06.94-1.59,1.4l-1.65,1.38c-1.15.92-2.34,1.8-3.55,2.65L112.62,164l-5-29.67L115,122.37q-1.35.3-2.73.54a62.14,62.14,0,0,1-7.14.85c-1.32.09-2.65.14-4,.14a64.13,64.13,0,0,1-15-1.78l7.53,12.19-4.7,30.2-27.79-54.6q-1.92-1.53-3.72-3.2l-.51.44C19.83,139.32,20.34,195.62,20.38,198l0,2H179.62l-.08-2.11C176.9,132.84,150.89,111.33,144.5,107Z"/><path class="cls-1" d="M101.17,0a59.76,59.76,0,1,0,59.77,59.76A59.83,59.83,0,0,0,101.17,0Z"/></g></svg>